<?xml version="1.0" standalone="no"?>
<!DOCTYPE svg PUBLIC "-//W3C//DTD SVG 20010904//EN"
 "http://www.w3.org/TR/2001/REC-SVG-20010904/DTD/svg10.dtd">
<svg version="1.0" xmlns="http://www.w3.org/2000/svg"
 width="500.000000pt" height="500.000000pt" viewBox="0 0 500.000000 500.000000"
 preserveAspectRatio="xMidYMid meet">

<g transform="translate(0.000000,500.000000) scale(0.100000,-0.100000)"
fill="#000000" stroke="none">
<path d="M0 2500 l0 -2500 2500 0 2500 0 0 2500 0 2500 -2500 0 -2500 0 0
-2500z m2832 1071 l273 -159 3 -155 2 -154 -277 -160 -277 -159 -205 118
c-113 65 -209 118 -213 118 -5 0 -8 -40 -8 -88 l0 -88 213 -122 213 -123 206
118 c171 97 208 123 213 144 16 71 118 110 181 71 39 -25 68 -83 59 -122 -16
-72 -87 -118 -154 -100 -38 10 -43 8 -217 -93 -99 -57 -204 -117 -234 -134
l-55 -32 -275 159 -275 158 -5 169 -5 168 -115 67 c-102 60 -121 67 -168 68
-48 0 -58 4 -88 34 -29 29 -34 41 -34 83 0 55 17 86 60 108 79 41 161 0 179
-89 6 -25 28 -41 166 -121 88 -51 248 -143 355 -205 107 -62 200 -113 205
-113 6 0 103 53 217 119 l208 119 0 81 0 82 -202 115 c-112 64 -208 117 -215
119 -17 4 -263 -135 -259 -147 1 -5 28 -24 58 -42 l56 -33 68 40 c38 22 73 40
77 40 5 0 38 -17 75 -37 54 -30 74 -36 113 -34 55 3 92 -17 115 -60 47 -91
-34 -194 -133 -167 -35 9 -83 60 -83 87 0 16 -65 61 -89 61 -6 0 -40 -18 -76
-40 l-66 -40 -184 106 c-156 90 -188 105 -213 99 -35 -7 -88 13 -115 43 -10
11 -21 39 -24 63 -21 152 192 194 236 47 8 -26 20 -49 26 -52 7 -2 102 47 211
110 109 63 200 114 201 114 0 0 124 -72 275 -159z m-542 -1581 l0 -200 -50 0
-50 0 0 200 0 200 50 0 50 0 0 -200z m-171 166 c17 -15 21 -31 21 -78 0 -33
-5 -68 -10 -78 -7 -13 -7 -21 0 -25 11 -7 13 -134 2 -151 -16 -25 -56 -34
-151 -34 l-101 0 0 196 0 196 109 -4 c90 -2 113 -6 130 -22z m670 0 c20 -18
21 -29 21 -172 l0 -153 -26 -20 c-22 -17 -41 -21 -109 -21 -124 0 -128 5 -133
161 -7 209 7 230 149 226 59 -2 82 -6 98 -21z m179 -24 c16 -48 26 -46 39 8 9
34 10 35 67 38 45 2 57 0 53 -10 -3 -7 -22 -51 -43 -96 l-38 -84 47 -94 c26
-52 47 -97 47 -100 0 -3 -26 -4 -57 -2 -58 3 -58 3 -73 45 -8 23 -18 44 -21
48 -4 3 -15 -17 -25 -45 l-18 -50 -53 0 c-36 0 -53 4 -52 13 0 6 19 50 43 96
l43 85 -44 93 c-23 51 -43 95 -43 98 0 3 26 5 57 3 l56 -3 15 -43z m-458 -157
l0 -35 -90 0 -90 0 0 35 0 35 90 0 90 0 0 -35z m-1510 -555 c0 -13 -7 -20 -20
-20 -18 0 -20 -7 -20 -75 0 -73 -1 -75 -25 -75 -24 0 -25 2 -25 75 0 60 -3 75
-15 75 -8 0 -15 9 -15 20 0 18 7 20 60 20 53 0 60 -2 60 -20z m78 -22 c2 -24
8 -38 17 -38 9 0 15 14 17 38 2 30 7 38 26 40 21 3 22 1 22 -92 0 -96 0 -96
-25 -96 -22 0 -25 4 -25 35 0 24 -5 35 -15 35 -10 0 -15 -11 -15 -35 0 -31 -3
-35 -25 -35 -25 0 -25 0 -25 96 0 93 1 95 23 92 18 -2 23 -10 25 -40z m232 22
c0 -16 -7 -20 -30 -20 -23 0 -30 -4 -30 -20 0 -16 7 -20 30 -20 39 0 41 -27 3
-32 -42 -5 -43 -36 -1 -40 22 -2 34 -9 36 -20 3 -16 -5 -18 -57 -18 l-61 0 0
95 0 95 55 0 c48 0 55 -2 55 -20z m223 6 c17 -17 21 -144 5 -163 -6 -8 -33
-13 -64 -13 l-54 0 0 95 0 95 49 0 c30 0 55 -6 64 -14z m168 -61 c10 -38 21
-80 24 -92 4 -19 1 -23 -19 -23 -13 0 -26 7 -30 15 -3 8 -14 15 -25 15 -10 0
-21 -7 -25 -15 -3 -8 -16 -15 -30 -15 l-25 0 25 91 c13 50 24 93 24 95 0 3 14
4 32 2 31 -3 33 -6 49 -73z m117 28 l21 -48 1 48 c0 43 2 47 25 47 25 0 25 0
25 -95 0 -93 -1 -95 -23 -95 -18 0 -28 11 -44 48 l-21 47 -1 -47 c-1 -41 -4
-48 -21 -48 -19 0 -20 7 -20 95 0 86 2 95 19 95 12 0 25 -15 39 -47z m154 5
l3 -43 19 43 c14 33 24 42 42 42 28 0 29 -2 8 -56 -14 -37 -14 -44 0 -79 22
-51 20 -57 -11 -53 -19 2 -29 11 -37 35 -17 49 -26 50 -26 5 0 -38 -2 -42 -25
-42 -25 0 -25 1 -25 88 0 93 3 102 31 102 14 0 19 -10 21 -42z m168 -53 c0
-95 0 -95 -25 -95 -25 0 -25 1 -25 88 0 94 3 102 32 102 16 0 18 -10 18 -95z
m103 48 l22 -48 3 48 c3 39 6 47 23 47 17 0 19 -8 19 -95 0 -89 -1 -95 -20
-95 -15 0 -26 13 -40 43 l-19 42 0 -42 c-1 -39 -3 -43 -26 -43 -25 0 -25 0
-25 95 0 89 1 95 21 95 14 0 26 -13 42 -47z m222 31 c9 -9 15 -24 13 -33 -4
-22 -48 -28 -48 -7 0 9 -7 16 -15 16 -11 0 -15 -13 -15 -54 0 -55 14 -82 27
-50 4 10 2 19 -5 22 -7 2 -12 10 -12 18 0 9 11 14 35 14 34 0 35 -1 35 -38 0
-49 -14 -62 -65 -62 -23 0 -46 5 -53 12 -7 7 -12 41 -12 85 0 58 3 74 18 82
26 16 79 13 97 -5z m226 6 c14 -8 19 -21 19 -53 0 -24 -5 -48 -11 -54 -8 -8
-6 -19 5 -42 16 -31 16 -31 -8 -31 -18 0 -31 9 -43 33 l-18 32 -3 -32 c-3 -27
-7 -33 -28 -33 -24 0 -24 1 -24 88 0 49 3 92 7 95 10 11 82 8 104 -3z m169
-10 c0 -16 -7 -20 -30 -20 -23 0 -30 -4 -30 -20 0 -15 7 -20 25 -20 16 0 25
-6 25 -15 0 -9 -9 -15 -25 -15 -18 0 -25 -5 -25 -20 0 -16 7 -20 30 -20 23 0
30 -4 30 -20 0 -18 -7 -20 -55 -20 l-55 0 0 95 0 95 55 0 c48 0 55 -2 55 -20z
m85 -30 c4 -27 11 -50 15 -50 4 0 11 23 15 50 6 44 10 50 31 50 27 0 28 -6 13
-70 -26 -117 -28 -120 -59 -120 -26 0 -30 5 -40 43 -6 23 -15 58 -21 77 -15
56 -12 70 15 70 21 0 25 -6 31 -50z m233 28 c3 -15 -4 -18 -33 -18 -29 0 -36
-3 -33 -17 2 -11 14 -19 31 -21 35 -4 35 -30 0 -34 -17 -2 -29 -10 -31 -20 -3
-15 4 -18 32 -18 29 0 36 -4 36 -20 0 -18 -7 -20 -60 -20 l-60 0 0 88 c0 49 3
92 7 96 4 4 30 6 58 4 38 -2 51 -7 53 -20z m82 -52 c0 -74 0 -75 27 -78 17 -2
29 -10 31 -20 3 -15 -5 -18 -52 -18 l-56 0 0 95 c0 95 0 95 25 95 24 0 25 -2
25 -74z m201 -1 c10 -38 21 -80 24 -92 4 -19 1 -23 -19 -23 -13 0 -26 7 -30
15 -3 8 -14 15 -25 15 -10 0 -21 -7 -25 -15 -3 -8 -16 -15 -30 -15 l-25 0 25
91 c13 50 24 93 24 95 0 3 14 4 32 2 31 -3 33 -6 49 -73z m169 55 c0 -13 -7
-20 -20 -20 -18 0 -20 -7 -20 -75 0 -73 -1 -75 -25 -75 -24 0 -25 2 -25 75 0
60 -3 75 -15 75 -8 0 -15 9 -15 20 0 18 7 20 60 20 53 0 60 -2 60 -20z m78
-77 l3 -93 -26 0 -25 0 0 96 c0 93 1 95 23 92 21 -3 22 -8 25 -95z m143 87
c16 -9 19 -22 19 -89 0 -63 -3 -80 -16 -85 -27 -10 -89 -7 -102 6 -18 18 -16
143 4 162 18 18 66 21 95 6z m117 -32 l17 -43 5 40 c4 32 9 41 28 43 21 3 22
1 22 -92 0 -90 -1 -96 -20 -96 -15 0 -27 13 -40 43 l-20 42 0 -42 c0 -39 -2
-43 -25 -43 -25 0 -25 0 -25 95 0 90 1 95 21 95 15 0 25 -11 37 -42z"/>
<path d="M1972 3558 c-34 -34 6 -90 48 -68 20 11 24 22 20 50 -4 29 -46 40
-68 18z"/>
<path d="M1677 3393 c-4 -3 -7 -19 -7 -34 0 -34 25 -50 58 -38 24 9 30 47 10
67 -13 13 -50 16 -61 5z"/>
<path d="M2742 3283 c-41 -16 -32 -83 11 -83 46 0 66 59 28 80 -11 5 -21 10
-23 9 -2 0 -9 -3 -16 -6z"/>
<path d="M3062 2858 c-21 -21 -14 -57 13 -70 22 -10 29 -9 47 10 19 18 20 25
10 47 -13 27 -49 34 -70 13z"/>
<path d="M1980 2066 c0 -45 1 -46 31 -46 29 0 30 1 27 43 -3 38 -6 42 -30 45
-27 3 -28 2 -28 -42z"/>
<path d="M1980 1906 c0 -45 1 -46 31 -46 29 0 30 1 27 43 -3 38 -6 42 -30 45
-27 3 -28 2 -28 -42z"/>
<path d="M2650 1986 l0 -116 30 0 31 0 -3 113 -3 112 -27 3 -28 3 0 -115z"/>
<path d="M1470 1380 c0 -11 7 -20 15 -20 8 0 15 9 15 20 0 11 -7 20 -15 20 -8
0 -15 -9 -15 -20z"/>
<path d="M1470 1305 c0 -17 5 -25 13 -22 6 2 12 12 12 22 0 10 -6 20 -12 23
-8 2 -13 -6 -13 -23z"/>
<path d="M1647 1353 c-11 -10 -8 -43 3 -43 6 0 10 11 10 25 0 26 -2 29 -13 18z"/>
<path d="M2632 1378 c5 -32 28 -35 28 -4 0 17 -5 26 -16 26 -10 0 -14 -7 -12
-22z"/>
<path d="M3407 1353 c-11 -10 -8 -43 3 -43 6 0 10 11 10 25 0 26 -2 29 -13 18z"/>
<path d="M3790 1345 c0 -42 3 -55 15 -55 12 0 15 13 15 55 0 42 -3 55 -15 55
-12 0 -15 -13 -15 -55z"/>
</g>
</svg>
